<?xml version="1.0" encoding="utf-8"?>
<!-- Generator: Adobe Illustrator 28.1.0, SVG Export Plug-In . SVG Version: 6.00 Build 0)  -->
<svg version="1.1" xmlns="http://www.w3.org/2000/svg" xmlns:xlink="http://www.w3.org/1999/xlink" x="0px" y="0px"
	 viewBox="0 0 1556 849" style="enable-background:new 0 0 1556 849;" xml:space="preserve">
<style type="text/css">
	.st0{fill:#94FF94;}
	.st1{fill:#D4FFD4;}
	.st2{fill:#A6FFA6;}
</style>
<g id="Слой_1">
	
		<image style="overflow:visible;enable-background:new    ;" width="1556" height="849" xlink:href="757A1CC.png"  transform="matrix(1 0 0 1 0 -1.464844e-05)">
	</image>
	<polygon class="st0" points="1342,187.9 1297,208.9 1274,259.9 1274,289.9 1284,328.9 1296,342.9 1308,360.9 1331,370.9 
		1366,382.9 1399,382.9 1424,376.9 1447,368.9 1469,354.9 1481,339.9 1494,317.9 1501,294.9 1501,265.9 1501,245.9 1487,217.9 
		1475,200.9 1457,187.9 1415,179.9 	"/>
	<path class="st1" d="M972,365.9l-36,22l-22,27l-9.2,21v34l-6.8,27l6.8,16l8.2,26c0,0,8,12,13,16s24,22,24,22l30,18l42.4,5h29.6
		l27-15l18-13l14-12l11-20l11-36v-30v-23l-17-26.4l-8-13.6l-15-28l-39-17H972z"/>
	<path class="st1" d="M1298,503.9l-38,27c0,0-22,26-23,29s-20,35-20,35l-8,36l5,42l14,23c0,0,16,8,25.5,14s37.5,11,37.5,11h39
		c0,0,29-7,34-9s29-12,29-12l25-19l13-20l5-48.5l-5-27.5l-11-30l-11-22l-15-20l-39-17h-32.5L1298,503.9z"/>
</g>
<g id="Слой_2">
	<path class="st2" d="M910,132.9c1.5,10.3,5.2,27.2,16,45c5.1,8.5,23.4,37.7,61,50c31.5,10.4,58.4,2.8,68,0c18.4-5.4,30.3-14,33-16
		c6.2-4.6,15.7-11.6,23-24c6.2-10.6,4-13.5,11-25c7.9-12.8,12.5-12.1,16-21c3.6-9.1,1.7-17.2-2-33c-3.5-14.8-5.6-13.8-14-39
		c-5.2-15.4-5.7-19.9-11-27c-5.8-7.8-12.5-12.3-18-16c-2.3-1.5-11.4-7.5-28-13c-12.2-4.1-23.6-7.8-38-7.9c-5.1,0-13.1,0.4-47,11.9
		c-22.9,7.7-34.4,11.6-38,14c-21.4,14-35.1,39.4-37,65C903.8,112.8,907.4,125.7,910,132.9z"/>
</g>
</svg>
